<mxfile host="app.diagrams.net" agent="Mozilla/5.0 (Windows NT 10.0; Win64; x64; rv:139.0) Gecko/20100101 Firefox/139.0" version="27.1.4">
  <diagram name="第 1 页" id="j2HKAkL99lsXe_zMsIWm">
    <mxGraphModel dx="786" dy="1602" grid="1" gridSize="10" guides="1" tooltips="1" connect="1" arrows="1" fold="1" page="1" pageScale="1" pageWidth="827" pageHeight="1169" math="0" shadow="0">
      <root>
        <mxCell id="0" />
        <mxCell id="1" parent="0" />
        <mxCell id="MR2F3jEDTbHoAzmtTiBj-44" style="edgeStyle=orthogonalEdgeStyle;rounded=0;orthogonalLoop=1;jettySize=auto;html=1;exitX=0.5;exitY=0;exitDx=0;exitDy=0;entryX=0.5;entryY=1;entryDx=0;entryDy=0;fontSize=18;" parent="1" source="MR2F3jEDTbHoAzmtTiBj-4" target="MR2F3jEDTbHoAzmtTiBj-5" edge="1">
          <mxGeometry relative="1" as="geometry" />
        </mxCell>
        <mxCell id="MR2F3jEDTbHoAzmtTiBj-4" value="Conv" style="rounded=0;whiteSpace=wrap;html=1;fillColor=#dae8fc;strokeColor=#6c8ebf;fontSize=18;" parent="1" vertex="1">
          <mxGeometry x="240" y="200" width="120" height="60" as="geometry" />
        </mxCell>
        <mxCell id="MR2F3jEDTbHoAzmtTiBj-45" style="edgeStyle=orthogonalEdgeStyle;rounded=0;orthogonalLoop=1;jettySize=auto;html=1;exitX=0.5;exitY=0;exitDx=0;exitDy=0;entryX=0.5;entryY=1;entryDx=0;entryDy=0;fontSize=18;" parent="1" source="MR2F3jEDTbHoAzmtTiBj-5" target="MR2F3jEDTbHoAzmtTiBj-15" edge="1">
          <mxGeometry relative="1" as="geometry" />
        </mxCell>
        <mxCell id="MR2F3jEDTbHoAzmtTiBj-5" value="Conv" style="rounded=0;whiteSpace=wrap;html=1;fillColor=#dae8fc;strokeColor=#6c8ebf;fontSize=18;" parent="1" vertex="1">
          <mxGeometry x="240" y="110" width="120" height="60" as="geometry" />
        </mxCell>
        <mxCell id="MR2F3jEDTbHoAzmtTiBj-48" style="edgeStyle=orthogonalEdgeStyle;rounded=0;orthogonalLoop=1;jettySize=auto;html=1;exitX=0.5;exitY=0;exitDx=0;exitDy=0;entryX=0.5;entryY=1;entryDx=0;entryDy=0;fontSize=18;" parent="1" source="MR2F3jEDTbHoAzmtTiBj-6" target="MR2F3jEDTbHoAzmtTiBj-9" edge="1">
          <mxGeometry relative="1" as="geometry">
            <mxPoint x="300" y="-180" as="targetPoint" />
          </mxGeometry>
        </mxCell>
        <mxCell id="MR2F3jEDTbHoAzmtTiBj-70" style="edgeStyle=orthogonalEdgeStyle;rounded=0;orthogonalLoop=1;jettySize=auto;html=1;exitX=1;exitY=0.5;exitDx=0;exitDy=0;entryX=0;entryY=0.5;entryDx=0;entryDy=0;fontSize=18;" parent="1" source="MR2F3jEDTbHoAzmtTiBj-6" target="MR2F3jEDTbHoAzmtTiBj-32" edge="1">
          <mxGeometry relative="1" as="geometry" />
        </mxCell>
        <mxCell id="MR2F3jEDTbHoAzmtTiBj-6" value="C3K2" style="rounded=0;whiteSpace=wrap;html=1;fillColor=#d5e8d4;strokeColor=#82b366;fontSize=18;" parent="1" vertex="1">
          <mxGeometry x="240" y="-160" width="120" height="60" as="geometry" />
        </mxCell>
        <mxCell id="MR2F3jEDTbHoAzmtTiBj-54" style="edgeStyle=orthogonalEdgeStyle;rounded=0;orthogonalLoop=1;jettySize=auto;html=1;entryX=0.5;entryY=1;entryDx=0;entryDy=0;fontSize=18;" parent="1" source="MR2F3jEDTbHoAzmtTiBj-8" target="MR2F3jEDTbHoAzmtTiBj-10" edge="1">
          <mxGeometry relative="1" as="geometry" />
        </mxCell>
        <mxCell id="MR2F3jEDTbHoAzmtTiBj-8" value="C3K2" style="rounded=0;whiteSpace=wrap;html=1;fillColor=#d5e8d4;strokeColor=#82b366;fontSize=18;" parent="1" vertex="1">
          <mxGeometry x="240" y="-340" width="120" height="60" as="geometry" />
        </mxCell>
        <mxCell id="MR2F3jEDTbHoAzmtTiBj-50" style="edgeStyle=orthogonalEdgeStyle;rounded=0;orthogonalLoop=1;jettySize=auto;html=1;entryX=0.5;entryY=1;entryDx=0;entryDy=0;fontSize=18;" parent="1" source="MR2F3jEDTbHoAzmtTiBj-9" edge="1">
          <mxGeometry relative="1" as="geometry">
            <mxPoint x="300" y="-280" as="targetPoint" />
          </mxGeometry>
        </mxCell>
        <mxCell id="MR2F3jEDTbHoAzmtTiBj-9" value="Conv" style="rounded=0;whiteSpace=wrap;html=1;fillColor=#dae8fc;strokeColor=#6c8ebf;fontSize=18;" parent="1" vertex="1">
          <mxGeometry x="240" y="-250" width="120" height="60" as="geometry" />
        </mxCell>
        <mxCell id="MR2F3jEDTbHoAzmtTiBj-55" style="edgeStyle=orthogonalEdgeStyle;rounded=0;orthogonalLoop=1;jettySize=auto;html=1;entryX=0.5;entryY=1;entryDx=0;entryDy=0;fontSize=18;" parent="1" source="MR2F3jEDTbHoAzmtTiBj-10" target="MR2F3jEDTbHoAzmtTiBj-43" edge="1">
          <mxGeometry relative="1" as="geometry" />
        </mxCell>
        <mxCell id="MR2F3jEDTbHoAzmtTiBj-10" value="SPPF" style="rounded=0;whiteSpace=wrap;html=1;fillColor=#fff2cc;strokeColor=#d6b656;fontSize=18;" parent="1" vertex="1">
          <mxGeometry x="240" y="-430" width="120" height="60" as="geometry" />
        </mxCell>
        <mxCell id="MR2F3jEDTbHoAzmtTiBj-47" style="edgeStyle=orthogonalEdgeStyle;rounded=0;orthogonalLoop=1;jettySize=auto;html=1;entryX=0.5;entryY=1;entryDx=0;entryDy=0;fontSize=18;" parent="1" source="MR2F3jEDTbHoAzmtTiBj-11" target="MR2F3jEDTbHoAzmtTiBj-6" edge="1">
          <mxGeometry relative="1" as="geometry" />
        </mxCell>
        <mxCell id="MR2F3jEDTbHoAzmtTiBj-11" value="Conv" style="rounded=0;whiteSpace=wrap;html=1;fillColor=#dae8fc;strokeColor=#6c8ebf;fontSize=18;" parent="1" vertex="1">
          <mxGeometry x="240" y="-70" width="120" height="60" as="geometry" />
        </mxCell>
        <mxCell id="MR2F3jEDTbHoAzmtTiBj-46" style="edgeStyle=orthogonalEdgeStyle;rounded=0;orthogonalLoop=1;jettySize=auto;html=1;exitX=0.5;exitY=0;exitDx=0;exitDy=0;entryX=0.5;entryY=1;entryDx=0;entryDy=0;fontSize=18;" parent="1" source="MR2F3jEDTbHoAzmtTiBj-15" target="MR2F3jEDTbHoAzmtTiBj-11" edge="1">
          <mxGeometry relative="1" as="geometry" />
        </mxCell>
        <mxCell id="2PmtP5i5ljf80QtDzWwi-11" style="edgeStyle=orthogonalEdgeStyle;rounded=0;orthogonalLoop=1;jettySize=auto;html=1;exitX=1;exitY=0.5;exitDx=0;exitDy=0;entryX=0;entryY=0.5;entryDx=0;entryDy=0;fontSize=18;" parent="1" source="MR2F3jEDTbHoAzmtTiBj-15" target="2PmtP5i5ljf80QtDzWwi-3" edge="1">
          <mxGeometry relative="1" as="geometry" />
        </mxCell>
        <mxCell id="MR2F3jEDTbHoAzmtTiBj-15" value="C3K2" style="rounded=0;whiteSpace=wrap;html=1;fillColor=#d5e8d4;strokeColor=#82b366;fontSize=18;" parent="1" vertex="1">
          <mxGeometry x="240" y="20" width="120" height="60" as="geometry" />
        </mxCell>
        <mxCell id="MR2F3jEDTbHoAzmtTiBj-19" value="0" style="text;html=1;align=center;verticalAlign=middle;resizable=0;points=[];autosize=1;strokeColor=none;fillColor=none;fontSize=18;" parent="1" vertex="1">
          <mxGeometry x="205" y="210" width="30" height="40" as="geometry" />
        </mxCell>
        <mxCell id="MR2F3jEDTbHoAzmtTiBj-20" value="1" style="text;html=1;align=center;verticalAlign=middle;resizable=0;points=[];autosize=1;strokeColor=none;fillColor=none;fontSize=18;" parent="1" vertex="1">
          <mxGeometry x="205" y="120" width="30" height="40" as="geometry" />
        </mxCell>
        <mxCell id="MR2F3jEDTbHoAzmtTiBj-21" value="2" style="text;html=1;align=center;verticalAlign=middle;resizable=0;points=[];autosize=1;strokeColor=none;fillColor=none;fontSize=18;" parent="1" vertex="1">
          <mxGeometry x="205" y="30" width="30" height="40" as="geometry" />
        </mxCell>
        <mxCell id="MR2F3jEDTbHoAzmtTiBj-22" value="3" style="text;html=1;align=center;verticalAlign=middle;resizable=0;points=[];autosize=1;strokeColor=none;fillColor=none;fontSize=18;" parent="1" vertex="1">
          <mxGeometry x="205" y="-60" width="30" height="40" as="geometry" />
        </mxCell>
        <mxCell id="MR2F3jEDTbHoAzmtTiBj-23" value="4" style="text;html=1;align=center;verticalAlign=middle;resizable=0;points=[];autosize=1;strokeColor=none;fillColor=none;fontSize=18;" parent="1" vertex="1">
          <mxGeometry x="205" y="-150" width="30" height="40" as="geometry" />
        </mxCell>
        <mxCell id="MR2F3jEDTbHoAzmtTiBj-24" value="5" style="text;html=1;align=center;verticalAlign=middle;resizable=0;points=[];autosize=1;strokeColor=none;fillColor=none;fontSize=18;" parent="1" vertex="1">
          <mxGeometry x="205" y="-245" width="30" height="40" as="geometry" />
        </mxCell>
        <mxCell id="MR2F3jEDTbHoAzmtTiBj-28" value="8" style="text;html=1;align=center;verticalAlign=middle;resizable=0;points=[];autosize=1;strokeColor=none;fillColor=none;fontSize=18;" parent="1" vertex="1">
          <mxGeometry x="205" y="-510" width="30" height="40" as="geometry" />
        </mxCell>
        <mxCell id="MR2F3jEDTbHoAzmtTiBj-69" style="edgeStyle=orthogonalEdgeStyle;rounded=0;orthogonalLoop=1;jettySize=auto;html=1;exitX=0.5;exitY=1;exitDx=0;exitDy=0;entryX=0.5;entryY=0;entryDx=0;entryDy=0;fontSize=18;" parent="1" source="MR2F3jEDTbHoAzmtTiBj-31" target="MR2F3jEDTbHoAzmtTiBj-32" edge="1">
          <mxGeometry relative="1" as="geometry" />
        </mxCell>
        <mxCell id="MR2F3jEDTbHoAzmtTiBj-31" value="&lt;div&gt;UpSample&lt;/div&gt;" style="rounded=0;whiteSpace=wrap;html=1;fillColor=#f8cecc;strokeColor=#b85450;fontSize=18;" parent="1" vertex="1">
          <mxGeometry x="480" y="-270" width="120" height="60" as="geometry" />
        </mxCell>
        <mxCell id="2PmtP5i5ljf80QtDzWwi-1" style="edgeStyle=orthogonalEdgeStyle;rounded=0;orthogonalLoop=1;jettySize=auto;html=1;exitX=0.5;exitY=1;exitDx=0;exitDy=0;entryX=0.5;entryY=0;entryDx=0;entryDy=0;fontSize=18;" parent="1" source="MR2F3jEDTbHoAzmtTiBj-32" target="MR2F3jEDTbHoAzmtTiBj-36" edge="1">
          <mxGeometry relative="1" as="geometry" />
        </mxCell>
        <mxCell id="MR2F3jEDTbHoAzmtTiBj-32" value="&lt;div&gt;Contact&lt;/div&gt;" style="rounded=0;whiteSpace=wrap;html=1;fillColor=#e1d5e7;strokeColor=#9673a6;fontSize=18;" parent="1" vertex="1">
          <mxGeometry x="480" y="-160" width="120" height="60" as="geometry" />
        </mxCell>
        <mxCell id="2PmtP5i5ljf80QtDzWwi-53" style="edgeStyle=orthogonalEdgeStyle;rounded=0;orthogonalLoop=1;jettySize=auto;html=1;exitX=1;exitY=0.5;exitDx=0;exitDy=0;entryX=0;entryY=0.5;entryDx=0;entryDy=0;fontSize=18;" parent="1" source="MR2F3jEDTbHoAzmtTiBj-33" target="2PmtP5i5ljf80QtDzWwi-49" edge="1">
          <mxGeometry relative="1" as="geometry" />
        </mxCell>
        <mxCell id="MR2F3jEDTbHoAzmtTiBj-33" value="C3K2" style="rounded=0;whiteSpace=wrap;html=1;fillColor=#d5e8d4;strokeColor=#82b366;fontSize=18;" parent="1" vertex="1">
          <mxGeometry x="720" y="-470" width="120" height="55" as="geometry" />
        </mxCell>
        <mxCell id="2PmtP5i5ljf80QtDzWwi-16" style="edgeStyle=orthogonalEdgeStyle;rounded=0;orthogonalLoop=1;jettySize=auto;html=1;exitX=0.5;exitY=0;exitDx=0;exitDy=0;entryX=0.5;entryY=1;entryDx=0;entryDy=0;fontSize=18;" parent="1" source="MR2F3jEDTbHoAzmtTiBj-34" target="MR2F3jEDTbHoAzmtTiBj-33" edge="1">
          <mxGeometry relative="1" as="geometry" />
        </mxCell>
        <mxCell id="MR2F3jEDTbHoAzmtTiBj-34" value="&lt;div&gt;Contact&lt;/div&gt;" style="rounded=0;whiteSpace=wrap;html=1;fillColor=#e1d5e7;strokeColor=#9673a6;fontSize=18;" parent="1" vertex="1">
          <mxGeometry x="720" y="-370" width="120" height="60" as="geometry" />
        </mxCell>
        <mxCell id="MR2F3jEDTbHoAzmtTiBj-82" style="edgeStyle=orthogonalEdgeStyle;rounded=0;orthogonalLoop=1;jettySize=auto;html=1;exitX=0.5;exitY=0;exitDx=0;exitDy=0;entryX=0.5;entryY=1;entryDx=0;entryDy=0;fontSize=18;" parent="1" source="MR2F3jEDTbHoAzmtTiBj-35" target="MR2F3jEDTbHoAzmtTiBj-34" edge="1">
          <mxGeometry relative="1" as="geometry" />
        </mxCell>
        <mxCell id="MR2F3jEDTbHoAzmtTiBj-35" value="Conv" style="rounded=0;whiteSpace=wrap;html=1;fillColor=#dae8fc;strokeColor=#6c8ebf;fontSize=18;" parent="1" vertex="1">
          <mxGeometry x="720" y="-270" width="120" height="60" as="geometry" />
        </mxCell>
        <mxCell id="2PmtP5i5ljf80QtDzWwi-7" style="edgeStyle=orthogonalEdgeStyle;rounded=0;orthogonalLoop=1;jettySize=auto;html=1;exitX=0.5;exitY=1;exitDx=0;exitDy=0;entryX=0.5;entryY=0;entryDx=0;entryDy=0;fontSize=18;" parent="1" source="MR2F3jEDTbHoAzmtTiBj-36" target="2PmtP5i5ljf80QtDzWwi-2" edge="1">
          <mxGeometry relative="1" as="geometry" />
        </mxCell>
        <mxCell id="2PmtP5i5ljf80QtDzWwi-30" style="edgeStyle=orthogonalEdgeStyle;rounded=0;orthogonalLoop=1;jettySize=auto;html=1;exitX=1;exitY=0.5;exitDx=0;exitDy=0;fontSize=18;" parent="1" source="MR2F3jEDTbHoAzmtTiBj-36" target="MR2F3jEDTbHoAzmtTiBj-37" edge="1">
          <mxGeometry relative="1" as="geometry" />
        </mxCell>
        <mxCell id="MR2F3jEDTbHoAzmtTiBj-36" value="C3K2" style="rounded=0;whiteSpace=wrap;html=1;fillColor=#d5e8d4;strokeColor=#82b366;fontSize=18;" parent="1" vertex="1">
          <mxGeometry x="480" y="-55" width="120" height="60" as="geometry" />
        </mxCell>
        <mxCell id="MR2F3jEDTbHoAzmtTiBj-77" style="edgeStyle=orthogonalEdgeStyle;rounded=0;orthogonalLoop=1;jettySize=auto;html=1;entryX=0.5;entryY=1;entryDx=0;entryDy=0;fontSize=18;" parent="1" source="MR2F3jEDTbHoAzmtTiBj-37" target="MR2F3jEDTbHoAzmtTiBj-39" edge="1">
          <mxGeometry relative="1" as="geometry" />
        </mxCell>
        <mxCell id="MR2F3jEDTbHoAzmtTiBj-37" value="&lt;div&gt;Contact&lt;/div&gt;" style="rounded=0;whiteSpace=wrap;html=1;fillColor=#e1d5e7;strokeColor=#9673a6;fontSize=18;" parent="1" vertex="1">
          <mxGeometry x="720" y="-55" width="120" height="60" as="geometry" />
        </mxCell>
        <mxCell id="MR2F3jEDTbHoAzmtTiBj-76" style="edgeStyle=orthogonalEdgeStyle;rounded=0;orthogonalLoop=1;jettySize=auto;html=1;exitX=0.5;exitY=0;exitDx=0;exitDy=0;entryX=0.5;entryY=1;entryDx=0;entryDy=0;fontSize=18;" parent="1" source="MR2F3jEDTbHoAzmtTiBj-38" target="MR2F3jEDTbHoAzmtTiBj-37" edge="1">
          <mxGeometry relative="1" as="geometry" />
        </mxCell>
        <mxCell id="MR2F3jEDTbHoAzmtTiBj-38" value="Conv" style="rounded=0;whiteSpace=wrap;html=1;fillColor=#dae8fc;strokeColor=#6c8ebf;fontSize=18;" parent="1" vertex="1">
          <mxGeometry x="720" y="50" width="120" height="60" as="geometry" />
        </mxCell>
        <mxCell id="MR2F3jEDTbHoAzmtTiBj-79" style="edgeStyle=orthogonalEdgeStyle;rounded=0;orthogonalLoop=1;jettySize=auto;html=1;exitX=1;exitY=0.5;exitDx=0;exitDy=0;entryX=0;entryY=0.5;entryDx=0;entryDy=0;fontSize=18;" parent="1" source="MR2F3jEDTbHoAzmtTiBj-39" target="MR2F3jEDTbHoAzmtTiBj-41" edge="1">
          <mxGeometry relative="1" as="geometry" />
        </mxCell>
        <mxCell id="MR2F3jEDTbHoAzmtTiBj-81" style="edgeStyle=orthogonalEdgeStyle;rounded=0;orthogonalLoop=1;jettySize=auto;html=1;exitX=0.5;exitY=0;exitDx=0;exitDy=0;entryX=0.5;entryY=1;entryDx=0;entryDy=0;fontSize=18;" parent="1" source="MR2F3jEDTbHoAzmtTiBj-39" target="MR2F3jEDTbHoAzmtTiBj-35" edge="1">
          <mxGeometry relative="1" as="geometry" />
        </mxCell>
        <mxCell id="MR2F3jEDTbHoAzmtTiBj-39" value="C3K2" style="rounded=0;whiteSpace=wrap;html=1;fillColor=#d5e8d4;strokeColor=#82b366;fontSize=18;" parent="1" vertex="1">
          <mxGeometry x="720" y="-160" width="120" height="60" as="geometry" />
        </mxCell>
        <mxCell id="MR2F3jEDTbHoAzmtTiBj-40" value="Head" style="rounded=0;whiteSpace=wrap;html=1;fillColor=#e3c800;fontColor=#000000;strokeColor=#B09500;fontSize=18;" parent="1" vertex="1">
          <mxGeometry x="980" y="155" width="120" height="60" as="geometry" />
        </mxCell>
        <mxCell id="MR2F3jEDTbHoAzmtTiBj-41" value="Head" style="rounded=0;whiteSpace=wrap;html=1;fillColor=#e3c800;fontColor=#000000;strokeColor=#B09500;fontSize=18;" parent="1" vertex="1">
          <mxGeometry x="980" y="-160" width="120" height="60" as="geometry" />
        </mxCell>
        <mxCell id="2PmtP5i5ljf80QtDzWwi-62" style="edgeStyle=orthogonalEdgeStyle;rounded=0;orthogonalLoop=1;jettySize=auto;html=1;exitX=1;exitY=0.5;exitDx=0;exitDy=0;entryX=0;entryY=0.5;entryDx=0;entryDy=0;fontSize=18;" parent="1" source="MR2F3jEDTbHoAzmtTiBj-43" target="MR2F3jEDTbHoAzmtTiBj-34" edge="1">
          <mxGeometry relative="1" as="geometry" />
        </mxCell>
        <mxCell id="H6CpWuoM6dufZVIhLLBR-1" style="edgeStyle=orthogonalEdgeStyle;rounded=0;orthogonalLoop=1;jettySize=auto;html=1;exitX=1;exitY=0.5;exitDx=0;exitDy=0;entryX=0;entryY=0.5;entryDx=0;entryDy=0;fontSize=18;" parent="1" source="MR2F3jEDTbHoAzmtTiBj-43" target="MR2F3jEDTbHoAzmtTiBj-31" edge="1">
          <mxGeometry relative="1" as="geometry">
            <Array as="points">
              <mxPoint x="420" y="-490" />
              <mxPoint x="420" y="-240" />
            </Array>
          </mxGeometry>
        </mxCell>
        <mxCell id="MR2F3jEDTbHoAzmtTiBj-43" value="C2PSA" style="rounded=0;whiteSpace=wrap;html=1;fillColor=#ffe6cc;strokeColor=#d79b00;fontSize=18;" parent="1" vertex="1">
          <mxGeometry x="240" y="-520" width="120" height="60" as="geometry" />
        </mxCell>
        <mxCell id="MR2F3jEDTbHoAzmtTiBj-72" value="9" style="text;html=1;align=center;verticalAlign=middle;resizable=0;points=[];autosize=1;strokeColor=none;fillColor=none;fontSize=18;" parent="1" vertex="1">
          <mxGeometry x="450" y="-275" width="30" height="40" as="geometry" />
        </mxCell>
        <mxCell id="MR2F3jEDTbHoAzmtTiBj-73" value="10" style="text;html=1;align=center;verticalAlign=middle;resizable=0;points=[];autosize=1;strokeColor=none;fillColor=none;fontSize=18;" parent="1" vertex="1">
          <mxGeometry x="440" y="-165" width="40" height="40" as="geometry" />
        </mxCell>
        <mxCell id="MR2F3jEDTbHoAzmtTiBj-84" value="15" style="text;html=1;align=center;verticalAlign=middle;resizable=0;points=[];autosize=1;strokeColor=none;fillColor=none;fontSize=18;" parent="1" vertex="1">
          <mxGeometry x="680" y="60" width="40" height="40" as="geometry" />
        </mxCell>
        <mxCell id="MR2F3jEDTbHoAzmtTiBj-87" value="16" style="text;html=1;align=center;verticalAlign=middle;resizable=0;points=[];autosize=1;strokeColor=none;fillColor=none;fontSize=18;" parent="1" vertex="1">
          <mxGeometry x="680" y="-60" width="40" height="40" as="geometry" />
        </mxCell>
        <mxCell id="MR2F3jEDTbHoAzmtTiBj-89" value="18" style="text;html=1;align=center;verticalAlign=middle;resizable=0;points=[];autosize=1;strokeColor=none;fillColor=none;fontSize=18;" parent="1" vertex="1">
          <mxGeometry x="680" y="-260" width="40" height="40" as="geometry" />
        </mxCell>
        <mxCell id="MR2F3jEDTbHoAzmtTiBj-90" value="19" style="text;html=1;align=center;verticalAlign=middle;resizable=0;points=[];autosize=1;strokeColor=none;fillColor=none;fontSize=18;" parent="1" vertex="1">
          <mxGeometry x="680" y="-375" width="40" height="40" as="geometry" />
        </mxCell>
        <mxCell id="MR2F3jEDTbHoAzmtTiBj-91" value="20" style="text;html=1;align=center;verticalAlign=middle;resizable=0;points=[];autosize=1;strokeColor=none;fillColor=none;fontSize=18;" parent="1" vertex="1">
          <mxGeometry x="680" y="-465" width="40" height="40" as="geometry" />
        </mxCell>
        <mxCell id="MR2F3jEDTbHoAzmtTiBj-98" value="17" style="text;html=1;align=center;verticalAlign=middle;resizable=0;points=[];autosize=1;strokeColor=none;fillColor=none;fontSize=18;" parent="1" vertex="1">
          <mxGeometry x="680" y="-150" width="40" height="40" as="geometry" />
        </mxCell>
        <mxCell id="MR2F3jEDTbHoAzmtTiBj-103" value="" style="whiteSpace=wrap;html=1;aspect=fixed;fillColor=#0050ef;fontColor=#ffffff;strokeColor=#001DBC;fontSize=18;" parent="1" vertex="1">
          <mxGeometry x="280" y="310" width="80" height="80" as="geometry" />
        </mxCell>
        <mxCell id="MR2F3jEDTbHoAzmtTiBj-108" style="edgeStyle=orthogonalEdgeStyle;rounded=0;orthogonalLoop=1;jettySize=auto;html=1;exitX=0.5;exitY=0;exitDx=0;exitDy=0;entryX=0.5;entryY=1;entryDx=0;entryDy=0;fontSize=18;" parent="1" source="MR2F3jEDTbHoAzmtTiBj-104" target="MR2F3jEDTbHoAzmtTiBj-4" edge="1">
          <mxGeometry relative="1" as="geometry" />
        </mxCell>
        <mxCell id="MR2F3jEDTbHoAzmtTiBj-104" value="" style="whiteSpace=wrap;html=1;aspect=fixed;fillColor=#008a00;fontColor=#ffffff;strokeColor=#005700;fontSize=18;" parent="1" vertex="1">
          <mxGeometry x="260" y="320" width="80" height="80" as="geometry" />
        </mxCell>
        <mxCell id="MR2F3jEDTbHoAzmtTiBj-105" value="" style="whiteSpace=wrap;html=1;aspect=fixed;fillColor=#e51400;fontColor=#ffffff;strokeColor=#B20000;direction=south;fontSize=18;" parent="1" vertex="1">
          <mxGeometry x="240" y="330" width="80" height="80" as="geometry" />
        </mxCell>
        <mxCell id="MR2F3jEDTbHoAzmtTiBj-109" value="&lt;div&gt;Backbone&lt;/div&gt;" style="shape=umlFrame;whiteSpace=wrap;html=1;pointerEvents=0;fillColor=#ffcccc;strokeColor=#00CC00;width=90;height=50;fontSize=18;" parent="1" vertex="1">
          <mxGeometry x="170" y="-610" width="230" height="910" as="geometry" />
        </mxCell>
        <mxCell id="MR2F3jEDTbHoAzmtTiBj-110" value="Neck" style="shape=umlFrame;whiteSpace=wrap;html=1;pointerEvents=0;fillColor=#ffcc99;strokeColor=light-dark(#00CC00,#BABDC0);width=90;height=50;fontSize=18;" parent="1" vertex="1">
          <mxGeometry x="440" y="-610" width="490" height="910" as="geometry" />
        </mxCell>
        <mxCell id="2PmtP5i5ljf80QtDzWwi-6" style="edgeStyle=orthogonalEdgeStyle;rounded=0;orthogonalLoop=1;jettySize=auto;html=1;exitX=0.5;exitY=1;exitDx=0;exitDy=0;entryX=0.5;entryY=0;entryDx=0;entryDy=0;fontSize=18;" parent="1" source="2PmtP5i5ljf80QtDzWwi-2" target="2PmtP5i5ljf80QtDzWwi-3" edge="1">
          <mxGeometry relative="1" as="geometry" />
        </mxCell>
        <mxCell id="2PmtP5i5ljf80QtDzWwi-2" value="&lt;div&gt;UpSample&lt;/div&gt;" style="rounded=0;whiteSpace=wrap;html=1;fillColor=#f8cecc;strokeColor=#b85450;fontSize=18;" parent="1" vertex="1">
          <mxGeometry x="480" y="50" width="120" height="60" as="geometry" />
        </mxCell>
        <mxCell id="2PmtP5i5ljf80QtDzWwi-5" style="edgeStyle=orthogonalEdgeStyle;rounded=0;orthogonalLoop=1;jettySize=auto;html=1;exitX=1;exitY=0.5;exitDx=0;exitDy=0;entryX=0;entryY=0.5;entryDx=0;entryDy=0;fontSize=18;" parent="1" source="2PmtP5i5ljf80QtDzWwi-3" target="2PmtP5i5ljf80QtDzWwi-4" edge="1">
          <mxGeometry relative="1" as="geometry" />
        </mxCell>
        <mxCell id="2PmtP5i5ljf80QtDzWwi-3" value="&lt;div&gt;Contact&lt;/div&gt;" style="rounded=0;whiteSpace=wrap;html=1;fillColor=#e1d5e7;strokeColor=#9673a6;fontSize=18;" parent="1" vertex="1">
          <mxGeometry x="480" y="155" width="120" height="60" as="geometry" />
        </mxCell>
        <mxCell id="2PmtP5i5ljf80QtDzWwi-15" style="edgeStyle=orthogonalEdgeStyle;rounded=0;orthogonalLoop=1;jettySize=auto;html=1;exitX=0.5;exitY=0;exitDx=0;exitDy=0;entryX=0.5;entryY=1;entryDx=0;entryDy=0;fontSize=18;" parent="1" source="2PmtP5i5ljf80QtDzWwi-4" target="MR2F3jEDTbHoAzmtTiBj-38" edge="1">
          <mxGeometry relative="1" as="geometry" />
        </mxCell>
        <mxCell id="2PmtP5i5ljf80QtDzWwi-46" style="edgeStyle=orthogonalEdgeStyle;rounded=0;orthogonalLoop=1;jettySize=auto;html=1;exitX=1;exitY=0.5;exitDx=0;exitDy=0;entryX=0;entryY=0.5;entryDx=0;entryDy=0;fontSize=18;" parent="1" source="2PmtP5i5ljf80QtDzWwi-4" target="MR2F3jEDTbHoAzmtTiBj-40" edge="1">
          <mxGeometry relative="1" as="geometry" />
        </mxCell>
        <mxCell id="2PmtP5i5ljf80QtDzWwi-4" value="C3K2" style="rounded=0;whiteSpace=wrap;html=1;fillColor=#d5e8d4;strokeColor=#82b366;fontSize=18;" parent="1" vertex="1">
          <mxGeometry x="720" y="155" width="120" height="60" as="geometry" />
        </mxCell>
        <mxCell id="2PmtP5i5ljf80QtDzWwi-19" value="11" style="text;html=1;align=center;verticalAlign=middle;resizable=0;points=[];autosize=1;strokeColor=none;fillColor=none;fontSize=18;" parent="1" vertex="1">
          <mxGeometry x="440" y="-45" width="40" height="40" as="geometry" />
        </mxCell>
        <mxCell id="2PmtP5i5ljf80QtDzWwi-20" value="12" style="text;html=1;align=center;verticalAlign=middle;resizable=0;points=[];autosize=1;strokeColor=none;fillColor=none;fontSize=18;" parent="1" vertex="1">
          <mxGeometry x="440" y="60" width="40" height="40" as="geometry" />
        </mxCell>
        <mxCell id="2PmtP5i5ljf80QtDzWwi-22" value="13" style="text;html=1;align=center;verticalAlign=middle;resizable=0;points=[];autosize=1;strokeColor=none;fillColor=none;fontSize=18;" parent="1" vertex="1">
          <mxGeometry x="440" y="150" width="40" height="40" as="geometry" />
        </mxCell>
        <mxCell id="2PmtP5i5ljf80QtDzWwi-23" value="14" style="text;html=1;align=center;verticalAlign=middle;resizable=0;points=[];autosize=1;strokeColor=none;fillColor=none;fontSize=18;" parent="1" vertex="1">
          <mxGeometry x="680" y="153" width="40" height="40" as="geometry" />
        </mxCell>
        <mxCell id="2PmtP5i5ljf80QtDzWwi-47" value="P2" style="text;html=1;align=center;verticalAlign=middle;resizable=0;points=[];autosize=1;strokeColor=none;fillColor=none;fontSize=18;" parent="1" vertex="1">
          <mxGeometry x="935" y="150" width="50" height="40" as="geometry" />
        </mxCell>
        <mxCell id="2PmtP5i5ljf80QtDzWwi-48" value="P3" style="text;html=1;align=center;verticalAlign=middle;resizable=0;points=[];autosize=1;strokeColor=none;fillColor=none;fontSize=18;" parent="1" vertex="1">
          <mxGeometry x="935" y="-165" width="50" height="40" as="geometry" />
        </mxCell>
        <mxCell id="2PmtP5i5ljf80QtDzWwi-49" value="Head" style="rounded=0;whiteSpace=wrap;html=1;fillColor=#e3c800;fontColor=#000000;strokeColor=#B09500;fontSize=18;" parent="1" vertex="1">
          <mxGeometry x="980" y="-472.5" width="120" height="60" as="geometry" />
        </mxCell>
        <mxCell id="2PmtP5i5ljf80QtDzWwi-54" value="P4" style="text;html=1;align=center;verticalAlign=middle;resizable=0;points=[];autosize=1;strokeColor=none;fillColor=none;fontSize=18;" parent="1" vertex="1">
          <mxGeometry x="935" y="-477.5" width="50" height="40" as="geometry" />
        </mxCell>
        <mxCell id="2PmtP5i5ljf80QtDzWwi-57" value="6" style="text;html=1;align=center;verticalAlign=middle;resizable=0;points=[];autosize=1;strokeColor=none;fillColor=none;fontSize=18;" parent="1" vertex="1">
          <mxGeometry x="205" y="-330" width="30" height="40" as="geometry" />
        </mxCell>
        <mxCell id="2PmtP5i5ljf80QtDzWwi-58" value="&lt;div&gt;7&lt;/div&gt;" style="text;html=1;align=center;verticalAlign=middle;resizable=0;points=[];autosize=1;strokeColor=none;fillColor=none;fontSize=18;" parent="1" vertex="1">
          <mxGeometry x="205" y="-420" width="30" height="40" as="geometry" />
        </mxCell>
      </root>
    </mxGraphModel>
  </diagram>
</mxfile>
